<svg version="1.1" id="Layer_1" xmlns="http://www.w3.org/2000/svg" xmlns:xlink="http://www.w3.org/1999/xlink" x="0px" y="0px"
	 width="100%" viewBox="0 0 496 76" enable-background="new 0 0 496 76" xml:space="preserve">
<path fill="#171D23" opacity="1.000000" stroke="none" 
	d="
M369.000000,77.000000 
	C246.000015,77.000000 123.500031,77.000000 1.000033,77.000000 
	C1.000022,51.666683 1.000022,26.333368 1.000011,1.000040 
	C166.333298,1.000026 331.666595,1.000026 496.999908,1.000013 
	C496.999939,26.333292 496.999939,51.666584 496.999969,76.999939 
	C454.500000,77.000000 412.000000,77.000000 369.000000,77.000000 
M75.386314,40.438450 
	C75.358040,39.994991 75.329758,39.551533 75.585411,38.432301 
	C75.248795,25.594309 67.568512,15.442225 55.830784,12.319912 
	C44.733955,9.368081 32.802601,14.394932 26.766483,24.565121 
	C21.145782,34.035374 22.253946,46.185055 29.564981,54.055061 
	C31.156921,52.368111 32.741585,50.688866 34.724884,49.026466 
	C34.724884,49.026466 35.123875,49.028446 35.123875,49.028446 
	C35.123875,49.028446 35.522522,49.011749 36.063576,49.482990 
	C38.036652,50.782845 40.009727,52.082699 41.941757,53.687763 
	C41.941757,53.687763 41.996845,53.990746 41.843510,54.649696 
	C40.235069,56.514671 38.626629,58.379642 36.979156,60.289875 
	C49.163471,66.945259 63.770969,63.332314 71.652283,51.742306 
	C72.381653,49.818893 73.111031,47.895481 74.267426,45.358440 
	C74.508194,43.905582 74.748962,42.452724 75.386314,40.438450 
M164.500458,61.983463 
	C173.941177,61.983463 183.381882,61.983463 192.906891,61.983463 
	C192.906891,58.722748 192.906891,55.980583 192.906891,52.721977 
	C180.116531,52.721977 167.556137,52.721977 154.919327,52.721977 
	C154.919327,49.274628 154.919327,46.352238 154.919327,42.875145 
	C164.558319,42.875145 173.939484,42.875145 183.273392,42.875145 
	C183.273392,39.569901 183.273392,36.836407 183.273392,33.707932 
	C173.666672,33.707932 164.395004,33.707932 154.890305,33.707932 
	C154.890305,30.381357 154.890305,27.456774 154.890305,24.048771 
	C167.594681,24.048771 180.163040,24.048771 192.927704,24.048771 
	C192.927704,20.826870 192.927704,18.085520 192.927704,15.182854 
	C176.917938,15.182854 161.076065,15.182854 145.304047,15.182854 
	C145.304047,30.931337 145.304047,46.329773 145.304047,61.983261 
	C151.560638,61.983261 157.530670,61.983261 164.500458,61.983463 
M231.644882,54.854969 
	C236.992523,60.224693 242.340179,65.594414 248.400269,71.679520 
	C248.400269,52.101494 248.400269,33.714218 248.400269,15.070933 
	C245.266281,15.070933 242.358505,15.070933 238.890076,15.070933 
	C238.890076,26.062181 238.890076,36.908802 238.890076,47.755421 
	C238.327682,48.129097 237.765274,48.502773 237.202881,48.876450 
	C226.428528,38.040810 215.654175,27.205172 205.331116,16.823391 
	C205.331116,31.408403 205.331116,46.653351 205.331116,61.679710 
	C208.455566,61.679710 211.215973,61.679710 214.483673,61.679710 
	C214.483673,53.833462 214.483673,46.298000 214.483673,37.098682 
	C220.763275,43.602497 225.954117,48.978676 231.644882,54.854969 
M368.834564,53.915627 
	C369.279816,49.335648 369.997498,44.762417 370.111053,40.174229 
	C370.319031,31.770960 370.170288,23.358864 370.170288,15.182199 
	C366.683624,15.182199 363.942047,15.182199 360.983673,15.182199 
	C360.983673,25.651978 360.843140,35.785244 361.045471,45.911663 
	C361.140533,50.669964 358.777344,52.654453 354.509918,52.790634 
	C349.190918,52.960373 343.858490,52.957302 338.539093,52.793369 
	C333.420929,52.635639 332.009094,50.966534 331.993256,45.653957 
	C331.976929,40.163189 331.989563,34.672329 331.989563,29.181511 
	C331.989563,24.435389 331.989563,19.689266 331.989563,15.051849 
	C328.469116,15.051849 325.675812,15.051849 322.670013,15.051849 
	C322.670013,26.694490 322.222168,38.150097 322.827820,49.549732 
	C323.229950,57.119171 329.480927,61.773952 337.680267,61.961323 
	C343.334503,62.090530 348.994415,62.023613 354.651215,61.976425 
	C360.516357,61.927498 365.284119,59.764328 368.834564,53.915627 
M453.502472,61.151558 
	C466.969666,60.470821 476.736816,51.019741 477.017853,38.397137 
	C477.298767,25.779842 467.899750,14.983172 454.888031,14.148380 
	C443.848450,13.440117 431.654266,20.624296 430.076904,35.579002 
	C428.640076,49.201523 438.717407,60.297344 453.502472,61.151558 
M88.465614,17.816639 
	C90.812653,23.019556 94.715988,24.668230 100.407097,24.139654 
	C106.513794,23.572477 112.715134,24.078335 118.873398,23.990822 
	C122.230415,23.943119 124.570374,25.431229 124.740219,28.688057 
	C124.917610,32.089577 122.395142,33.612846 119.204750,33.807655 
	C117.048363,33.939320 114.878014,33.846096 112.713905,33.846516 
	C103.944351,33.848213 95.174797,33.847221 86.384064,33.847221 
	C86.384064,43.520584 86.384064,52.711826 86.384064,61.782711 
	C89.547363,61.782711 92.339951,61.782711 95.671806,61.782711 
	C95.671806,55.533165 95.671806,49.463673 95.671806,42.995998 
	C104.165070,42.995998 112.125595,43.156139 120.076653,42.950314 
	C127.804855,42.750259 133.778641,36.809101 134.014420,29.529520 
	C134.251968,22.195469 129.312866,15.420310 122.423615,15.107476 
	C111.292267,14.602015 100.124664,14.872603 88.973190,14.944084 
	C88.648750,14.946164 88.333595,16.395622 88.465614,17.816639 
M259.297577,61.982136 
	C263.624023,61.984417 267.950470,61.988190 272.276917,61.988674 
	C281.350037,61.989693 281.350037,61.988983 285.047455,52.353653 
	C281.677216,52.353653 278.495544,52.353653 274.556122,52.353653 
	C278.862915,45.455326 282.673340,39.352089 286.901001,32.580521 
	C295.184967,45.811108 303.158447,58.545784 311.022339,71.105476 
	C317.273590,65.010513 315.365173,59.742229 311.319641,53.746468 
	C303.813324,42.621513 297.038788,31.003252 289.934814,19.605806 
	C289.038910,18.168463 287.994049,16.823961 286.775726,15.091664 
	C277.225800,30.389545 268.086182,45.012730 258.989807,59.662773 
	C258.610291,60.273991 258.634613,61.135948 259.297577,61.982136 
M381.683624,14.840228 
	C380.934998,17.770796 380.186371,20.701363 379.282135,24.241100 
	C386.805695,24.241100 392.903198,24.241100 399.492493,24.241100 
	C399.492493,36.968555 399.492493,49.361050 399.492493,61.717945 
	C402.756592,61.717945 405.510864,61.717945 408.800049,61.717945 
	C408.800049,49.077503 408.800049,36.710567 408.800049,24.030371 
	C411.809998,24.030371 414.277740,24.031124 416.745453,24.030230 
	C424.703369,24.027346 425.458618,23.372293 427.044312,14.826982 
	C412.208527,14.826982 397.431061,14.826982 381.683624,14.840228 
z"/>
<path fill="#F4F4F4" opacity="1.000000" stroke="none" 
	d="
M164.000580,61.983360 
	C157.530670,61.983261 151.560638,61.983261 145.304047,61.983261 
	C145.304047,46.329773 145.304047,30.931337 145.304047,15.182854 
	C161.076065,15.182854 176.917938,15.182854 192.927704,15.182854 
	C192.927704,18.085520 192.927704,20.826870 192.927704,24.048771 
	C180.163040,24.048771 167.594681,24.048771 154.890305,24.048771 
	C154.890305,27.456774 154.890305,30.381357 154.890305,33.707932 
	C164.395004,33.707932 173.666672,33.707932 183.273392,33.707932 
	C183.273392,36.836407 183.273392,39.569901 183.273392,42.875145 
	C173.939484,42.875145 164.558319,42.875145 154.919327,42.875145 
	C154.919327,46.352238 154.919327,49.274628 154.919327,52.721977 
	C167.556137,52.721977 180.116531,52.721977 192.906891,52.721977 
	C192.906891,55.980583 192.906891,58.722748 192.906891,61.983463 
	C183.381882,61.983463 173.941177,61.983463 164.000580,61.983360 
z"/>
<path fill="#EEEEEE" opacity="1.000000" stroke="none" 
	d="
M231.394928,54.604912 
	C225.954117,48.978676 220.763275,43.602497 214.483673,37.098682 
	C214.483673,46.298000 214.483673,53.833462 214.483673,61.679710 
	C211.215973,61.679710 208.455566,61.679710 205.331116,61.679710 
	C205.331116,46.653351 205.331116,31.408403 205.331116,16.823391 
	C215.654175,27.205172 226.428528,38.040810 237.202881,48.876450 
	C237.765274,48.502773 238.327682,48.129097 238.890076,47.755421 
	C238.890076,36.908802 238.890076,26.062181 238.890076,15.070933 
	C242.358505,15.070933 245.266281,15.070933 248.400269,15.070933 
	C248.400269,33.714218 248.400269,52.101494 248.400269,71.679520 
	C242.340179,65.594414 236.992523,60.224693 231.394928,54.604912 
z"/>
<path fill="#F2F2F2" opacity="1.000000" stroke="none" 
	d="
M368.615723,54.242516 
	C365.284119,59.764328 360.516357,61.927498 354.651215,61.976425 
	C348.994415,62.023613 343.334503,62.090530 337.680267,61.961323 
	C329.480927,61.773952 323.229950,57.119171 322.827820,49.549732 
	C322.222168,38.150097 322.670013,26.694490 322.670013,15.051849 
	C325.675812,15.051849 328.469116,15.051849 331.989563,15.051849 
	C331.989563,19.689266 331.989563,24.435389 331.989563,29.181511 
	C331.989563,34.672329 331.976929,40.163189 331.993256,45.653957 
	C332.009094,50.966534 333.420929,52.635639 338.539093,52.793369 
	C343.858490,52.957302 349.190918,52.960373 354.509918,52.790634 
	C358.777344,52.654453 361.140533,50.669964 361.045471,45.911663 
	C360.843140,35.785244 360.983673,25.651978 360.983673,15.182199 
	C363.942047,15.182199 366.683624,15.182199 370.170288,15.182199 
	C370.170288,23.358864 370.319031,31.770960 370.111053,40.174229 
	C369.997498,44.762417 369.279816,49.335648 368.615723,54.242516 
z"/>
<path fill="#F2F2F2" opacity="1.000000" stroke="none" 
	d="
M453.057709,61.135155 
	C438.717407,60.297344 428.640076,49.201523 430.076904,35.579002 
	C431.654266,20.624296 443.848450,13.440117 454.888031,14.148380 
	C467.899750,14.983172 477.298767,25.779842 477.017853,38.397137 
	C476.736816,51.019741 466.969666,60.470821 453.057709,61.135155 
M459.247681,51.234608 
	C460.377838,50.560162 461.598206,50.000114 462.623169,49.192215 
	C468.061310,44.905758 469.789703,37.335606 466.788177,31.263510 
	C463.781464,25.180914 456.567383,21.673716 450.173798,23.186325 
	C443.598267,24.741978 438.947052,30.846201 438.789520,37.695232 
	C438.585907,46.547184 447.222198,55.057125 459.247681,51.234608 
z"/>
<path fill="#F3F3F3" opacity="1.000000" stroke="none" 
	d="
M88.239868,17.493431 
	C88.333595,16.395622 88.648750,14.946164 88.973190,14.944084 
	C100.124664,14.872603 111.292267,14.602015 122.423615,15.107476 
	C129.312866,15.420310 134.251968,22.195469 134.014420,29.529520 
	C133.778641,36.809101 127.804855,42.750259 120.076653,42.950314 
	C112.125595,43.156139 104.165070,42.995998 95.671806,42.995998 
	C95.671806,49.463673 95.671806,55.533165 95.671806,61.782711 
	C92.339951,61.782711 89.547363,61.782711 86.384064,61.782711 
	C86.384064,52.711826 86.384064,43.520584 86.384064,33.847221 
	C95.174797,33.847221 103.944351,33.848213 112.713905,33.846516 
	C114.878014,33.846096 117.048363,33.939320 119.204750,33.807655 
	C122.395142,33.612846 124.917610,32.089577 124.740219,28.688057 
	C124.570374,25.431229 122.230415,23.943119 118.873398,23.990822 
	C112.715134,24.078335 106.513794,23.572477 100.407097,24.139654 
	C94.715988,24.668230 90.812653,23.019556 88.239868,17.493431 
z"/>
<path fill="#F1F1F1" opacity="1.000000" stroke="none" 
	d="
M258.884186,61.931610 
	C258.634613,61.135948 258.610291,60.273991 258.989807,59.662773 
	C268.086182,45.012730 277.225800,30.389545 286.775726,15.091664 
	C287.994049,16.823961 289.038910,18.168463 289.934814,19.605806 
	C297.038788,31.003252 303.813324,42.621513 311.319641,53.746468 
	C315.365173,59.742229 317.273590,65.010513 311.022339,71.105476 
	C303.158447,58.545784 295.184967,45.811108 286.901001,32.580521 
	C282.673340,39.352089 278.862915,45.455326 274.556122,52.353653 
	C278.495544,52.353653 281.677216,52.353653 285.047455,52.353653 
	C281.350037,61.988983 281.350037,61.989693 272.276917,61.988674 
	C267.950470,61.988190 263.624023,61.984417 258.884186,61.931610 
z"/>
<path fill="#EDEDED" opacity="1.000000" stroke="none" 
	d="
M382.168640,14.833605 
	C397.431061,14.826982 412.208527,14.826982 427.044312,14.826982 
	C425.458618,23.372293 424.703369,24.027346 416.745453,24.030230 
	C414.277740,24.031124 411.809998,24.030371 408.800049,24.030371 
	C408.800049,36.710567 408.800049,49.077503 408.800049,61.717945 
	C405.510864,61.717945 402.756592,61.717945 399.492493,61.717945 
	C399.492493,49.361050 399.492493,36.968555 399.492493,24.241100 
	C392.903198,24.241100 386.805695,24.241100 379.282135,24.241100 
	C380.186371,20.701363 380.934998,17.770796 382.168640,14.833605 
z"/>
<path fill="#F0F0F0" opacity="1.000000" stroke="none" 
	d="
M34.326248,49.009624 
	C32.741585,50.688866 31.156921,52.368111 29.564981,54.055061 
	C22.253946,46.185055 21.145782,34.035374 26.766483,24.565121 
	C32.802601,14.394932 44.733955,9.368081 55.830784,12.319912 
	C67.568512,15.442225 75.248795,25.594309 75.038612,38.696056 
	C72.066704,38.640026 69.641594,38.320240 67.135071,37.594566 
	C66.568283,27.407763 60.070389,20.514977 50.767529,19.912823 
	C40.899681,19.274099 33.018654,24.920929 31.908054,34.791153 
	C31.391512,39.381824 33.440319,44.261147 34.326248,49.009624 
z"/>
<path fill="#1A2026" opacity="1.000000" stroke="none" 
	d="
M34.525566,49.018044 
	C33.440319,44.261147 31.391512,39.381824 31.908054,34.791153 
	C33.018654,24.920929 40.899681,19.274099 50.767529,19.912823 
	C60.070389,20.514977 66.568283,27.407763 67.055450,37.924309 
	C67.108414,39.106403 67.159584,39.552879 67.112564,40.355160 
	C66.650635,42.133980 66.286888,43.556995 65.643036,45.105835 
	C64.902077,46.132713 64.441223,47.033764 63.655197,47.851624 
	C58.729324,42.447151 54.128628,37.125866 48.984940,31.176538 
	C44.326221,37.348480 39.924374,43.180115 35.522522,49.011749 
	C35.522522,49.011749 35.123875,49.028446 35.123875,49.028446 
	C35.123875,49.028446 34.724884,49.026466 34.525566,49.018044 
z"/>
<path fill="#F0F0F0" opacity="1.000000" stroke="none" 
	d="
M35.793049,49.247368 
	C39.924374,43.180115 44.326221,37.348480 48.984940,31.176538 
	C54.128628,37.125866 58.729324,42.447151 63.810429,48.174454 
	C66.541130,49.745834 68.791412,50.911198 71.041702,52.076561 
	C63.770969,63.332314 49.163471,66.945259 36.979156,60.289875 
	C38.626629,58.379642 40.235069,56.514671 42.277832,54.464077 
	C47.169975,56.233238 51.574535,56.049599 56.694099,53.962173 
	C54.130432,50.847824 51.874596,48.107422 49.440094,45.149979 
	C46.853176,48.005844 44.417988,50.694199 41.982803,53.382557 
	C40.009727,52.082699 38.036652,50.782845 35.793049,49.247368 
z"/>
<path fill="#22272D" opacity="1.000000" stroke="none" 
	d="
M41.962280,53.535160 
	C44.417988,50.694199 46.853176,48.005844 49.440094,45.149979 
	C51.874596,48.107422 54.130432,50.847824 56.694099,53.962173 
	C51.574535,56.049599 47.169975,56.233238 42.354500,54.134602 
	C41.996845,53.990746 41.941757,53.687763 41.962280,53.535160 
z"/>
<path fill="#D4D4D5" opacity="1.000000" stroke="none" 
	d="
M71.346992,51.909431 
	C68.791412,50.911198 66.541130,49.745834 64.135605,48.257641 
	C64.441223,47.033764 64.902077,46.132713 66.037766,45.155777 
	C69.088547,45.377281 71.464478,45.674675 73.840408,45.972069 
	C73.111031,47.895481 72.381653,49.818893 71.346992,51.909431 
z"/>
<path fill="#F0F0F0" opacity="1.000000" stroke="none" 
	d="
M74.053917,45.665253 
	C71.464478,45.674675 69.088547,45.377281 66.317879,45.029945 
	C66.286888,43.556995 66.650635,42.133980 67.500031,40.373642 
	C70.320358,40.357502 72.655037,40.678684 74.989723,40.999870 
	C74.748962,42.452724 74.508194,43.905582 74.053917,45.665253 
z"/>
<path fill="#F1F1F1" opacity="1.000000" stroke="none" 
	d="
M75.188019,40.719162 
	C72.655037,40.678684 70.320358,40.357502 67.598206,40.017838 
	C67.159584,39.552879 67.108414,39.106403 67.136871,38.330193 
	C69.641594,38.320240 72.066704,38.640026 74.896652,39.033943 
	C75.329758,39.551533 75.358040,39.994991 75.188019,40.719162 
z"/>
<path fill="#191E24" opacity="1.000000" stroke="none" 
	d="
M458.902496,51.465126 
	C447.222198,55.057125 438.585907,46.547184 438.789520,37.695232 
	C438.947052,30.846201 443.598267,24.741978 450.173798,23.186325 
	C456.567383,21.673716 463.781464,25.180914 466.788177,31.263510 
	C469.789703,37.335606 468.061310,44.905758 462.623169,49.192215 
	C461.598206,50.000114 460.377838,50.560162 458.902496,51.465126 
z"/>
</svg>