<svg version="1.1" id="Layer_1" xmlns="http://www.w3.org/2000/svg" xmlns:xlink="http://www.w3.org/1999/xlink" x="0px" y="0px"
	 width="100%" viewBox="0 0 80 74" enable-background="new 0 0 80 74" xml:space="preserve">
<path fill="#171D27" opacity="1.000000" stroke="none" 
	d="
M59.000290,75.000000 
	C39.333565,75.000000 20.166903,75.000000 1.000182,75.000000 
	C1.000121,50.333420 1.000121,25.666843 1.000061,1.000198 
	C27.666571,1.000132 54.333141,1.000132 80.999786,1.000066 
	C80.999855,25.666563 80.999855,50.333126 80.999924,74.999847 
	C73.833450,75.000000 66.666901,75.000000 59.000290,75.000000 
M65.994499,50.296688 
	C66.310265,48.862099 66.626030,47.427509 67.367683,45.281296 
	C70.090904,32.157402 62.588146,18.189463 50.067562,13.073553 
	C37.074848,7.764729 22.608549,12.655917 14.858956,24.447210 
	C8.004797,34.876072 10.015212,51.487827 17.627531,57.717518 
	C19.406305,55.812103 21.190008,53.901413 23.436857,52.013603 
	C23.436857,52.013603 23.900360,52.027622 24.475050,52.390972 
	C26.584042,54.130573 28.693035,55.870171 30.821383,57.625732 
	C33.954967,54.042820 36.554829,51.070164 39.276581,47.958138 
	C42.038570,51.356354 44.514992,54.403221 47.805256,58.451397 
	C41.471992,58.451397 36.313557,58.451397 30.709452,58.451397 
	C29.239422,60.150169 27.425846,62.245945 25.575909,64.383743 
	C38.043686,72.618973 56.377781,67.499252 64.578712,53.732082 
	C64.941307,52.811802 65.303909,51.891521 65.994499,50.296688 
z"/>
<path fill="#F3F3F3" opacity="1.000000" stroke="none" 
	d="
M22.973709,51.990723 
	C21.190008,53.901413 19.406305,55.812103 17.627531,57.717518 
	C10.015212,51.487827 8.004797,34.876072 14.858956,24.447210 
	C22.608549,12.655917 37.074848,7.764729 50.067562,13.073553 
	C62.588146,18.189463 70.090904,32.157402 66.766708,45.636978 
	C63.511684,45.321346 60.857639,44.650040 58.182640,43.587215 
	C60.655277,33.084602 54.295261,23.213150 43.513161,20.459566 
	C33.547909,17.914597 22.825390,24.532640 19.999720,34.518768 
	C18.173519,40.972702 20.761972,46.380466 22.973709,51.990723 
z"/>
<path fill="#1A202A" opacity="1.000000" stroke="none" 
	d="
M23.205284,52.002163 
	C20.761972,46.380466 18.173519,40.972702 19.999720,34.518768 
	C22.825390,24.532640 33.547909,17.914597 43.513161,20.459566 
	C54.295261,23.213150 60.655277,33.084602 58.081734,43.944443 
	C57.529156,46.082348 57.056522,47.471516 56.369209,49.015869 
	C55.757557,49.740044 55.360588,50.309032 54.644508,50.786995 
	C49.394405,44.905659 44.463409,39.115337 38.894192,32.575569 
	C33.699730,39.314537 28.800045,45.671078 23.900360,52.027622 
	C23.900360,52.027622 23.436857,52.013603 23.205284,52.002163 
z"/>
<path fill="#F3F3F4" opacity="1.000000" stroke="none" 
	d="
M24.187706,52.209297 
	C28.800045,45.671078 33.699730,39.314537 38.894192,32.575569 
	C44.463409,39.115337 49.394405,44.905659 54.801239,51.096752 
	C57.424603,55.042103 60.691444,54.676910 64.045303,54.007774 
	C56.377781,67.499252 38.043686,72.618973 25.575909,64.383743 
	C27.425846,62.245945 29.239422,60.150169 30.709452,58.451397 
	C36.313557,58.451397 41.471992,58.451397 47.805256,58.451397 
	C44.514992,54.403221 42.038570,51.356354 39.276581,47.958138 
	C36.554829,51.070164 33.954967,54.042820 30.821383,57.625732 
	C28.693035,55.870171 26.584042,54.130573 24.187706,52.209297 
z"/>
<path fill="#E1E1E1" opacity="1.000000" stroke="none" 
	d="
M56.583893,48.860683 
	C57.056522,47.471516 57.529156,46.082348 58.102692,44.335957 
	C60.857639,44.650040 63.511684,45.321346 66.553757,45.992790 
	C66.626030,47.427509 66.310265,48.862099 65.451546,50.611534 
	C62.133694,50.237816 59.358791,49.549248 56.583893,48.860683 
z"/>
<path fill="#D4D5D5" opacity="1.000000" stroke="none" 
	d="
M56.369209,49.015869 
	C59.358791,49.549248 62.133694,50.237816 65.287552,50.948814 
	C65.303909,51.891521 64.941307,52.811802 64.312012,53.869926 
	C60.691444,54.676910 57.424603,55.042103 55.120354,51.187775 
	C55.360588,50.309032 55.757557,49.740044 56.369209,49.015869 
z"/>
</svg>