<svg version="1.1" id="Layer_1" xmlns="http://www.w3.org/2000/svg" xmlns:xlink="http://www.w3.org/1999/xlink" x="0px" y="0px"
	 width="100%" viewBox="0 0 80 74" enable-background="new 0 0 80 74" xml:space="preserve">
<path fill="#181E27" opacity="1.000000" stroke="none" 
	d="
M52.000000,75.000000 
	C34.666668,75.000000 17.833334,75.000000 1.000000,75.000000 
	C1.000000,50.333332 1.000000,25.666666 1.000000,1.000000 
	C27.666666,1.000000 54.333332,1.000000 81.000000,1.000000 
	C81.000000,25.666666 81.000000,50.333332 81.000000,75.000000 
	C71.500000,75.000000 62.000000,75.000000 52.000000,75.000000 
M12.750601,25.632547 
	C12.327925,27.011631 11.905250,28.390717 11.098750,30.521942 
	C11.027157,32.352852 10.862866,34.185593 10.899076,36.014370 
	C11.127174,47.534763 16.004099,56.632092 26.006105,62.321415 
	C35.761803,67.870628 45.965137,67.894867 55.847538,62.292007 
	C72.385948,52.915493 76.332237,29.601276 63.488609,17.138676 
	C61.600075,19.422764 59.718594,21.698322 57.892944,23.906355 
	C58.732216,25.768398 59.562542,27.375013 60.195934,29.055838 
	C63.250576,37.161945 61.117496,45.913544 54.739685,51.680634 
	C48.497940,57.324692 39.635387,58.682819 32.046120,54.886929 
	C22.571083,50.147831 19.674480,42.043411 21.027721,31.327431 
	C21.681131,29.550640 22.334539,27.773849 23.519979,25.688295 
	C24.015154,25.376865 24.510328,25.065435 25.412476,25.311779 
	C30.486044,31.201616 35.559616,37.091454 41.002769,43.410336 
	C46.617432,36.772938 51.930492,30.492085 57.610699,23.777206 
	C54.870209,21.602930 52.438255,19.673447 50.010323,17.348661 
	C50.010323,17.348661 49.982990,16.954287 50.165588,16.302830 
	C51.807159,14.275608 53.448730,12.248385 55.105881,10.201927 
	C41.024502,1.110142 21.353807,8.998299 15.280953,20.117132 
	C14.563667,21.748158 13.846381,23.379183 12.750601,25.632547 
z"/>
<path fill="#F4F4F4" opacity="1.000000" stroke="none" 
	d="
M20.827570,32.019650 
	C19.674480,42.043411 22.571083,50.147831 32.046120,54.886929 
	C39.635387,58.682819 48.497940,57.324692 54.739685,51.680634 
	C61.117496,45.913544 63.250576,37.161945 60.195934,29.055838 
	C59.562542,27.375013 58.732216,25.768398 57.892944,23.906355 
	C59.718594,21.698322 61.600075,19.422764 63.488609,17.138676 
	C76.332237,29.601276 72.385948,52.915493 55.847538,62.292007 
	C45.965137,67.894867 35.761803,67.870628 26.006105,62.321415 
	C16.004099,56.632092 11.127174,47.534763 10.899076,36.014370 
	C10.862866,34.185593 11.027157,32.352852 11.698648,30.242441 
	C15.141555,30.648510 17.984562,31.334080 20.827570,32.019650 
z"/>
<path fill="#F3F3F3" opacity="1.000000" stroke="none" 
	d="
M50.006310,17.743965 
	C52.438255,19.673447 54.870209,21.602930 57.610699,23.777206 
	C51.930492,30.492085 46.617432,36.772938 41.002769,43.410336 
	C35.559616,37.091454 30.486044,31.201616 25.058643,24.726200 
	C21.764387,22.695082 18.823959,21.249540 15.883533,19.803997 
	C21.353807,8.998299 41.024502,1.110142 55.105881,10.201927 
	C53.448730,12.248385 51.807159,14.275608 49.653534,16.687031 
	C43.718960,15.785205 38.310955,14.788609 32.556297,17.690685 
	C35.504021,21.156218 38.126221,24.239046 40.810055,27.394331 
	C44.122486,23.918331 47.064400,20.831150 50.006310,17.743965 
z"/>
<path fill="#1D222C" opacity="1.000000" stroke="none" 
	d="
M50.008316,17.546314 
	C47.064400,20.831150 44.122486,23.918331 40.810055,27.394331 
	C38.126221,24.239046 35.504021,21.156218 32.556297,17.690685 
	C38.310955,14.788609 43.718960,15.785205 49.562233,17.012760 
	C49.982990,16.954287 50.010323,17.348661 50.008316,17.546314 
z"/>
<path fill="#E0E0E1" opacity="1.000000" stroke="none" 
	d="
M20.927647,31.673540 
	C17.984562,31.334080 15.141555,30.648510 11.890560,29.866371 
	C11.905250,28.390717 12.327925,27.011631 13.367250,25.318752 
	C16.985250,25.335657 19.986599,25.666359 22.987949,25.997059 
	C22.334539,27.773849 21.681131,29.550640 20.927647,31.673540 
z"/>
<path fill="#D5D5D5" opacity="1.000000" stroke="none" 
	d="
M23.253963,25.842678 
	C19.986599,25.666359 16.985250,25.335657 13.556498,25.007582 
	C13.846381,23.379183 14.563667,21.748158 15.582243,19.960564 
	C18.823959,21.249540 21.764387,22.695082 24.855158,24.447315 
	C24.510328,25.065435 24.015154,25.376865 23.253963,25.842678 
z"/>
</svg>